<svg width="72.000000" height="72.000000" viewBox="0 0 72 72" fill="none" xmlns="http://www.w3.org/2000/svg" xmlns:xlink="http://www.w3.org/1999/xlink">
	<desc>
			Created with Pixso.
	</desc>
	<defs/>
	<circle id="Ellipse 414" cx="36.000000" cy="36.000000" r="36.000000" fill="#9466FF" fill-opacity="0.100000"/>
	<circle id="Ellipse 414" cx="36.000000" cy="36.000000" r="35.000000" stroke="#9466FF" stroke-opacity="1.000000" stroke-width="2.000000"/>
	<rect id="IconButton" rx="27.500000" width="55.000000" height="55.000000" transform="translate(8.500000 8.500000)" fill="#9466FF" fill-opacity="1.000000"/>
	<path id="Union" d="M23.68 22.5C23.66 22.5 23.64 22.5 23.62 22.5C23 22.5 22.5 23 22.5 23.62L22.5 26.27C22.5 39.1 32.9 49.49 45.72 49.49L48.37 49.49C48.99 49.49 49.5 48.99 49.5 48.37C49.5 48.35 49.5 48.33 49.5 48.31L49.5 42.95C49.5 42.49 49.21 42.07 48.77 41.91L42.4 39.45C42.02 39.3 41.59 39.37 41.28 39.62L35.34 44.5C32.07 42.63 29.35 39.92 27.49 36.65L32.36 30.71C32.62 30.39 32.69 29.97 32.54 29.59L30.08 23.22C29.91 22.78 29.5 22.5 29.03 22.5L23.68 22.5ZM26.4 34.44L30.21 29.79L28.26 24.75L24.75 24.75L24.75 26.27C24.75 29.17 25.33 31.93 26.4 34.44ZM45.72 47.24C42.82 47.24 40.06 46.65 37.55 45.59L42.2 41.78L47.25 43.73L47.25 47.24L45.72 47.24Z" fill="#E8E9EA" fill-opacity="1.000000" fill-rule="evenodd"/>
</svg>
