<svg width="24.000000" height="24.000000" viewBox="0 0 24 24" fill="none" xmlns="http://www.w3.org/2000/svg" xmlns:xlink="http://www.w3.org/1999/xlink">
	<desc>
			Created with Pixso.
	</desc>
	<defs/>
	<path id="Union" d="M17.32 18.62C19.26 17.06 20.5 14.67 20.5 12C20.5 7.3 16.69 3.5 12 3.5C7.3 3.5 3.5 7.3 3.5 12C3.5 14.67 4.73 17.06 6.67 18.62C7.28 16.25 9.43 14.5 12 14.5C14.56 14.5 16.71 16.25 17.32 18.62ZM15.97 19.51C15.73 17.53 14.04 16 12 16C9.95 16 8.26 17.53 8.02 19.51C9.21 20.14 10.56 20.5 12 20.5C13.43 20.5 14.78 20.14 15.97 19.51ZM12 22C17.52 22 22 17.52 22 12C22 6.47 17.52 2 12 2C6.47 2 2 6.47 2 12C2 17.52 6.47 22 12 22ZM12 11.5C12.82 11.5 13.5 10.82 13.5 10C13.5 9.17 12.82 8.5 12 8.5C11.17 8.5 10.5 9.17 10.5 10C10.5 10.82 11.17 11.5 12 11.5ZM12 13C13.65 13 15 11.65 15 10C15 8.34 13.65 7 12 7C10.34 7 9 8.34 9 10C9 11.65 10.34 13 12 13Z" fill="#E8E9EA" fill-opacity="1.000000" fill-rule="evenodd"/>
</svg>
